<?xml version="1.0" encoding="UTF-8"?>
<svg id="Layer_2" data-name="Layer 2" xmlns="http://www.w3.org/2000/svg" viewBox="0 0 57.206 51.612">
  <defs>
    <style>
      .cls-1 {
        fill: #091e38;
        fill-rule: evenodd;
      }
    </style>
  </defs>
  <g id="Layer_1-2" data-name="Layer 1">
    <path class="cls-1" d="M9.46,26.727c-.021-.432-.036-.869-.055-1.323-.816-.144-1.622-.301-2.428-.459,.008-1.192,.134-2.368,.267-3.551,.828,.064,1.655,.129,2.483,.195,.113-.721,.287-1.402,.475-2.107-.764-.366-1.527-.733-2.29-1.099,.255-.784,.51-1.567,.765-2.351,.208-.305,.415-.61,.623-.915,.518,.191,1.036,.382,1.553,.573,1.398,1.079,2.791,2.149,4.187,3.228-1.86,2.603-3.72,5.206-5.58,7.808m12.555-13.593c1.017,.803,1.914,1.511,2.958,2.333,3.919,3.089,7.834,6.181,11.751,9.272-.542,.619-1.083,1.237-1.625,1.855-5.058-3.942-9.605-7.484-14.637-11.403l1.553-2.058Zm-5.887,7.798l14.347,10.852,1.224-1.44-14.374-10.998-1.198,1.586Zm-7.934,9.79c.714,.075,1.429,.152,2.142,.225,3.169-2.384,5.692-4.291,8.856-6.681l-3.551-2.689-.389,.515-.86,.105c-2.065,2.843-4.131,5.684-6.198,8.526M11.836,5.568c-.797-.619-1.595-1.238-2.392-1.856-1.866,2.918-3.732,5.835-5.598,8.753-1.282,3.576-2.564,7.151-3.846,10.727,.43,.838,.861,1.676,1.291,2.514,1.988-2.959,3.975-5.917,5.963-8.876-.005-.126-.011-.252-.016-.378,.701-1.044,1.402-2.088,2.102-3.132,2.455,1.893,4.91,3.787,7.365,5.68,.185-.238,.369-.476,.554-.715l15.45,11.823-.665,.753c6.369,4.892,13.755,10.538,20.454,15.67,.525-.488,.751-.697,1.276-1.185,.836,.645,1.674,1.289,2.507,1.927,.141-.13,.584-.543,.726-.673-.267-.206-.323-.24-.58-.449-.439-.358,.03-.898,.251-1.106-.476-.369-.948-.733-1.425-1.101,.535-.51,.723-.689,1.264-1.206-8.194-6.402-3.902-3.046-9.939-7.762-3.502-2.736-7.004-5.471-10.506-8.207l-.727,.911L13.811,10.905l.7-.978-1.442-1.127c-.265-.23-.264-.444-.105-.673,.253-.368,.471-.696,.722-1.074,1.381-2.074,2.266-4.537,1.804-7.053-1.218,1.856-2.436,3.712-3.654,5.568m6.497,4.535c-.093,.132-.047,.223,.054,.308,.119,.101,1.334,1.053,2.567,2.025-.468,.639-.936,1.278-1.404,1.917-1.731-1.353-3.902-3.05-4.496-3.517,.571-.845,.991-1.461,1.567-2.304,.976-1.431,3.362-2.835,5.164-3.354-1.15,1.641-2.296,3.288-3.451,4.925m2.18,35.512c-.552,.58-1.045,1.198-1.538,1.817-.512-.318-.959-.641-1.425-.992-.467-.351-.952-.74-1.405-1.142,.436-.664,.871-1.328,1.307-1.993-.556-.505-1.05-.971-1.547-1.496-.672,.446-1.342,.892-1.951,1.377-.804-.887-1.567-1.831-2.234-2.79,.596-.527,1.16-1.071,1.792-1.592-.407-.588-.785-1.219-1.123-1.85-.79,.252-1.549,.521-2.279,.812-.588-1.072-1.079-2.158-1.481-3.248,.694-.365,1.426-.721,2.159-1.076-.158-.51-.332-1.028-.479-1.545,.209,.006,.421-.056,.601-.192,2.553-1.926,5.106-3.852,7.658-5.779,.736-.134,1.471-.267,2.207-.401,3.191,2.414,6.383,4.827,9.574,7.241,.4,.302,.971,.243,1.299-.144,1.458,1.129,2.916,2.259,4.373,3.388,.175,1.722,.355,3.442,.542,5.161,.038,.358,.388,.578,.724,.466,1.269-.421,2.519-1.017,3.683-1.785,2.563,1.991,5.127,3.982,7.69,5.973-.749,.687-1.563,1.282-2.41,1.833-.563-.621-1.085-1.24-1.639-1.876-.567,.401-1.204,.712-1.81,1.047,.306,.787,.581,1.558,.856,2.329-1.03,.48-2.076,.926-3.178,1.271-.352-.722-.736-1.462-1.079-2.199-.688,.207-1.355,.387-2.04,.531,.069,.806,.139,1.611,.237,2.438-1.094,.216-2.254,.344-3.411,.411-.197-.81-.363-1.604-.491-2.392-.716,.013-1.417,.002-2.141-.035-.114,.815-.259,1.613-.364,2.413-1.131-.085-2.295-.239-3.433-.493,.019-.803,.078-1.604,.133-2.401-.703-.185-1.375-.352-2.083-.585-.313,.726-.629,1.459-.952,2.206-1.089-.375-2.168-.821-3.225-1.36,.24-.75,.457-1.53,.742-2.288-.646-.315-1.283-.709-1.858-1.064m4.675-5.775c1.516-1.809,3.015-3.656,4.488-5.514,.256-.323,.828-.213,.924,.254,.493,2.402,1.025,4.785,1.519,7.149,.037,.18,.028,.351-.083,.471-.111,.121-.296,.157-.461,.148-2.09-.116-4.194-.673-6.197-1.677-.291-.146-.414-.563-.189-.831m-7.454-9.081c2.365-.181,4.753-.362,7.171-.541,.447-.032,.763,.491,.527,.862-1.294,2.023-2.606,3.994-3.907,5.971-.212,.323-.613,.315-.863,.039-1.497-1.649-2.659-3.539-3.391-5.619-.111-.315,.13-.685,.463-.711M38.998,13.066c-1.553,1.918-3.101,3.843-4.618,5.716-.141,.174-.365,.23-.568,.171-.203-.059-.352-.228-.397-.442-.522-2.472-1.004-4.921-1.516-7.403-.037-.178,.011-.325,.111-.465,.1-.141,.275-.222,.421-.214,2.178,.118,4.36,.718,6.354,1.753,.194,.1,.251,.21,.301,.39,.05,.18,.009,.375-.088,.494m-.349,9.025c1.348-2.026,2.717-4.06,4.054-6.134,.096-.149,.223-.245,.408-.254,.185-.009,.332,.045,.453,.18,1.542,1.726,2.65,3.71,3.346,5.786,.054,.162,.041,.341-.046,.491-.087,.15-.248,.233-.405,.246-2.467,.191-4.893,.353-7.316,.548-.196,.016-.369-.082-.481-.267-.111-.184-.127-.425-.013-.596m16.132,15.749c.499-.977,.884-2,1.229-3.026-.771-.357-1.534-.73-2.263-1.085,.205-.7,.375-1.416,.525-2.097,.85,.071,1.669,.127,2.511,.214,.203-1.183,.357-2.362,.423-3.547-.839-.151-1.636-.299-2.465-.464,.01-.749,.013-1.483-.002-2.197,.806-.172,1.604-.329,2.432-.462-.073-1.189-.254-2.414-.514-3.595-.833,.084-1.681,.122-2.474,.216-.175-.747-.349-1.429-.615-2.175,.755-.346,1.517-.706,2.283-1.065-.371-1.162-.859-2.286-1.378-3.372-.8,.287-1.624,.544-2.395,.854-.325-.672-.679-1.302-1.103-1.958,.609-.587,1.271-1.12,1.933-1.652-.701-1.026-1.409-1.98-2.221-2.921-.708,.474-1.424,.962-2.093,1.446-.465-.545-1.028-1.073-1.565-1.579,.439-.728,.906-1.434,1.382-2.154-.43-.407-.892-.803-1.372-1.168-.48-.365-.999-.741-1.521-1.081-.524,.661-1.047,1.322-1.603,1.967-.614-.401-1.241-.781-1.898-1.119,.241-.837,.516-1.658,.786-2.472-1.091-.549-2.225-1.045-3.34-1.437-.345,.799-.715,1.566-1.056,2.356-.668-.201-1.385-.388-2.114-.563,.04-.871,.087-1.758,.123-2.623-1.204-.263-2.359-.405-3.559-.485-.162,.861-.277,1.716-.393,2.57-.741-.027-1.46-.022-2.194,.002-.197-.853-.353-1.707-.541-2.576-1.169,.072-2.361,.247-3.512,.489,.1,.866,.168,1.716,.289,2.619-.187,.037-1.538,.342-1.815,.511l-4.28,5.968,3.104,2.5c.982-.606,2.026-1.09,3.127-1.453,.145-.048,.303-.049,.456,.048,.153,.097,.244,.267,.263,.447,.153,1.478,.313,2.96,.48,4.442l.663,.534c.188-.234,.368-.474,.565-.701,.526-.608,1.429-.399,2.472,.405,1.043,.804,1.425,1.752,.988,2.32-.193,.251-.392,.496-.587,.744l10.433,8.402c1.571-.292,3.136-.593,4.722-.873,.195-.034,.316-.002,.454,.114,.138,.117,.204,.301,.194,.474-.076,1.36-.299,2.722-.694,4.05l7.712,6.211,.017-.003ZM28.99,17.654c.21,.168,.42,.335,.63,.503-.214,.276-.15,.195-.386,.501,.229,.179,.463,.362,.697,.547,.24-.298,.173-.22,.391-.493,.206,.162,.412,.325,.617,.487,.276-.352,.56-.704,.84-1.061,.007-.683-1.302-1.655-1.956-1.557-.273,.303-.576,.739-.833,1.073"/>
  </g>
</svg>