<?xml version="1.0" encoding="UTF-8"?>
<svg id="Layer_2" data-name="Layer 2" xmlns="http://www.w3.org/2000/svg" viewBox="0 0 121.962 110.037">
  <defs>
    <style>
      .cls-1 {
        fill: #e1e2e3;
        fill-rule: evenodd;
      }
    </style>
  </defs>
  <g id="Layer_1-2" data-name="Layer 1">
    <path class="cls-1" d="M20.168,56.983c-.046-.921-.078-1.853-.118-2.82-1.74-.306-3.458-.643-5.176-.978,.018-2.542,.285-5.048,.569-7.57,1.765,.137,3.529,.276,5.294,.416,.241-1.536,.612-2.989,1.013-4.492-1.628-.781-3.255-1.562-4.883-2.343,.544-1.671,1.088-3.342,1.631-5.013,.442-.65,.885-1.3,1.328-1.951,1.104,.407,2.208,.814,3.312,1.221,2.981,2.301,5.95,4.582,8.926,6.882-3.966,5.55-7.931,11.098-11.897,16.648m26.768-28.981c2.168,1.711,4.081,3.221,6.306,4.974,8.355,6.586,16.702,13.179,25.054,19.768-1.155,1.319-2.31,2.637-3.465,3.956-10.783-8.405-20.477-15.957-31.206-24.311l3.312-4.387Zm-12.55,16.625l30.588,23.136,2.61-3.069-30.645-23.448-2.553,3.382Zm-16.914,20.873c1.522,.161,3.047,.324,4.567,.48,6.757-5.084,12.134-9.149,18.881-14.245l-7.572-5.733-.829,1.099-1.834,.223c-4.403,6.06-8.808,12.119-13.213,18.177M25.234,11.872c-1.7-1.319-3.4-2.638-5.1-3.957-3.978,6.22-7.956,12.44-11.934,18.661-2.734,7.623-5.467,15.246-8.201,22.87,.918,1.787,1.835,3.574,2.752,5.361,4.237-6.308,8.475-12.616,12.712-18.923-.011-.268-.023-.537-.034-.806,1.494-2.226,2.988-4.452,4.482-6.678,5.234,4.036,10.468,8.074,15.702,12.111,.394-.508,.788-1.016,1.181-1.524l32.939,25.206-1.418,1.606c13.578,10.429,29.326,22.466,43.608,33.407,1.119-1.039,1.601-1.487,2.72-2.526,1.783,1.375,3.569,2.747,5.344,4.109,.301-.278,1.245-1.157,1.547-1.434-.569-.439-.69-.512-1.236-.957-.937-.763,.063-1.915,.534-2.358-1.015-.787-2.022-1.562-3.037-2.348,1.14-1.086,1.542-1.47,2.695-2.572-17.47-13.648-8.318-6.493-21.191-16.548-7.466-5.833-14.933-11.665-22.399-17.497l-1.549,1.942L29.444,23.249l1.492-2.085-3.074-2.402c-.565-.49-.563-.946-.224-1.434,.539-.784,1.003-1.483,1.54-2.29,2.945-4.422,4.831-9.673,3.846-15.037-2.597,3.957-5.193,7.914-7.79,11.872m13.852,9.668c-.198,.282-.099,.475,.115,.657,.254,.216,2.844,2.246,5.473,4.316-.998,1.363-1.995,2.725-2.993,4.088-3.691-2.884-8.32-6.502-9.586-7.498,1.218-1.801,2.114-3.116,3.34-4.911,2.082-3.051,7.168-6.043,11.009-7.151-2.453,3.498-4.894,7.009-7.357,10.5m4.648,75.711c-1.178,1.237-2.229,2.555-3.279,3.874-1.092-.678-2.044-1.366-3.039-2.116-.995-.749-2.03-1.577-2.994-2.436,.929-1.415,1.858-2.832,2.787-4.248-1.185-1.076-2.24-2.07-3.297-3.189-1.432,.951-2.861,1.902-4.16,2.936-1.715-1.892-3.34-3.904-4.762-5.947,1.27-1.124,2.474-2.283,3.821-3.394-.867-1.254-1.673-2.6-2.395-3.944-1.685,.538-3.302,1.111-4.859,1.731-1.253-2.286-2.299-4.6-3.157-6.924,1.48-.777,3.04-1.537,4.602-2.295-.337-1.087-.709-2.192-1.021-3.295,.446,.012,.898-.12,1.281-.41,5.443-4.107,10.885-8.213,16.328-12.32,1.568-.286,3.136-.57,4.706-.854,6.804,5.146,13.608,10.291,20.412,15.438,.852,.644,2.069,.518,2.769-.306,3.108,2.408,6.216,4.816,9.324,7.223,.372,3.671,.758,7.339,1.155,11.004,.081,.764,.827,1.231,1.543,.994,2.706-.898,5.37-2.167,7.851-3.805,5.465,4.245,10.93,8.49,16.396,12.735-1.597,1.465-3.331,2.734-5.139,3.909-1.201-1.324-2.314-2.645-3.494-4-1.208,.854-2.566,1.519-3.859,2.232,.653,1.679,1.238,3.322,1.824,4.965-2.196,1.023-4.425,1.974-6.776,2.709-.751-1.54-1.57-3.116-2.3-4.688-1.466,.442-2.889,.825-4.349,1.132,.147,1.719,.297,3.435,.505,5.198-2.333,.46-4.806,.733-7.272,.876-.419-1.727-.774-3.42-1.047-5.099-1.526,.027-3.021,.005-4.565-.074-.243,1.737-.553,3.439-.775,5.145-2.411-.181-4.893-.509-7.319-1.051,.041-1.711,.165-3.421,.284-5.118-1.499-.394-2.93-.751-4.441-1.247-.667,1.548-1.342,3.11-2.031,4.702-2.321-.799-4.621-1.75-6.876-2.9,.511-1.598,.975-3.261,1.583-4.877-1.377-.671-2.735-1.511-3.961-2.268m9.967-12.312c3.233-3.857,6.428-7.795,9.568-11.755,.545-.688,1.766-.455,1.97,.542,1.052,5.122,2.186,10.202,3.239,15.242,.079,.383,.059,.747-.177,1.005-.236,.258-.632,.335-.984,.315-4.456-.247-8.942-1.436-13.213-3.576-.621-.312-.882-1.201-.403-1.773m-15.891-19.36c5.042-.385,10.134-.771,15.289-1.154,.953-.069,1.626,1.048,1.124,1.837-2.759,4.313-5.557,8.516-8.331,12.73-.452,.688-1.307,.671-1.84,.084-3.191-3.517-5.668-7.546-7.229-11.98-.236-.672,.278-1.461,.987-1.517M83.144,27.857c-3.311,4.09-6.612,8.193-9.845,12.187-.3,.372-.777,.491-1.21,.364-.434-.127-.751-.486-.847-.942-1.113-5.271-2.14-10.492-3.233-15.784-.079-.38,.023-.693,.237-.992,.214-.3,.587-.473,.897-.456,4.644,.252,9.295,1.531,13.547,3.738,.413,.214,.535,.448,.641,.831,.107,.383,.02,.799-.187,1.054m-.745,19.242c2.874-4.319,5.792-8.656,8.643-13.079,.204-.317,.475-.522,.871-.542,.395-.019,.707,.096,.966,.385,3.288,3.681,5.651,7.91,7.133,12.336,.116,.345,.088,.727-.098,1.047-.186,.32-.53,.498-.864,.524-5.26,.408-10.432,.754-15.598,1.168-.418,.033-.787-.175-1.025-.569-.238-.393-.271-.906-.028-1.271m34.393,33.578c1.063-2.083,1.884-4.265,2.62-6.451-1.644-.762-3.27-1.556-4.826-2.313,.438-1.492,.8-3.018,1.119-4.47,1.812,.151,3.557,.27,5.354,.456,.433-2.522,.76-5.036,.903-7.561-1.79-.323-3.488-.638-5.255-.989,.022-1.596,.027-3.162-.004-4.684,1.718-.366,3.42-.701,5.186-.984-.155-2.535-.541-5.147-1.096-7.664-1.777,.178-3.583,.26-5.275,.46-.373-1.593-.744-3.046-1.311-4.637,1.609-.738,3.235-1.506,4.868-2.271-.791-2.476-1.831-4.874-2.937-7.188-1.706,.612-3.462,1.159-5.105,1.821-.694-1.432-1.448-2.775-2.352-4.174,1.298-1.252,2.711-2.387,4.122-3.522-1.494-2.187-3.005-4.221-4.734-6.228-1.51,1.01-3.037,2.051-4.463,3.083-.991-1.162-2.191-2.289-3.337-3.367,.935-1.553,1.932-3.057,2.946-4.593-.917-.868-1.902-1.711-2.925-2.491-1.023-.779-2.129-1.58-3.242-2.304-1.116,1.41-2.232,2.819-3.417,4.194-1.309-.856-2.645-1.665-4.047-2.385,.514-1.785,1.099-3.535,1.676-5.271-2.327-1.171-4.743-2.228-7.121-3.065-.735,1.703-1.524,3.338-2.251,5.022-1.424-.428-2.953-.827-4.508-1.199,.085-1.858,.185-3.748,.262-5.592-2.567-.56-5.029-.864-7.588-1.034-.345,1.836-.591,3.658-.837,5.48-1.579-.057-3.112-.048-4.677,.003-.42-1.819-.753-3.639-1.153-5.493-2.491,.154-5.033,.526-7.488,1.042,.213,1.847,.359,3.659,.616,5.584-.399,.079-3.278,.728-3.87,1.089l-9.124,12.723,6.619,5.33c2.093-1.292,4.319-2.325,6.666-3.097,.309-.102,.647-.105,.973,.102,.327,.206,.521,.569,.561,.952,.326,3.151,.667,6.31,1.023,9.471l1.413,1.138c.401-.498,.785-1.011,1.204-1.495,1.121-1.297,3.046-.851,5.27,.863,2.224,1.714,3.037,3.736,2.106,4.946-.411,.534-.835,1.058-1.252,1.587l22.243,17.913c3.35-.623,6.687-1.263,10.068-1.861,.416-.073,.674-.005,.967,.244,.294,.249,.435,.643,.414,1.011-.163,2.9-.638,5.802-1.48,8.635l16.442,13.242,.036-.007ZM61.806,37.638c.448,.357,.896,.714,1.344,1.072-.456,.588-.32,.416-.823,1.068,.489,.381,.988,.772,1.485,1.166,.511-.636,.368-.47,.833-1.05,.439,.346,.877,.692,1.316,1.038,.589-.751,1.194-1.5,1.79-2.262,.014-1.457-2.776-3.527-4.169-3.32-.583,.646-1.228,1.575-1.776,2.288"/>
  </g>
</svg>