<?xml version="1.0" encoding="utf-8"?>
<!-- Generator: Adobe Illustrator 24.3.0, SVG Export Plug-In . SVG Version: 6.00 Build 0)  -->
<svg version="1.1" id="Layer_1" xmlns="http://www.w3.org/2000/svg" xmlns:xlink="http://www.w3.org/1999/xlink" x="0px" y="0px"
	 viewBox="0 0 841.9 595.3" style="enable-background:new 0 0 841.9 595.3;" xml:space="preserve">
<style type="text/css">
	.st0{fill-rule:evenodd;clip-rule:evenodd;fill:#FFFFFF;}
</style>
<path class="st0" d="M213.4,306.9c-0.2-4.4-0.4-8.8-0.6-13.4c-8.2-1.4-16.4-3-24.5-4.6c0.1-12,1.4-23.9,2.7-35.8
	c8.4,0.6,16.7,1.3,25.1,2c1.1-7.3,2.9-14.2,4.8-21.3c-7.7-3.7-15.4-7.4-23.1-11.1c2.6-7.9,5.1-15.8,7.7-23.7
	c2.1-3.1,4.2-6.2,6.3-9.2c5.2,1.9,10.5,3.9,15.7,5.8c14.1,10.9,28.2,21.7,42.3,32.6C250.9,254.4,232.2,280.7,213.4,306.9
	 M340.1,169.7c10.3,8.1,19.3,15.3,29.9,23.6c39.6,31.2,79.1,62.4,118.6,93.6c-5.5,6.2-10.9,12.5-16.4,18.7
	c-51.1-39.8-97-75.6-147.8-115.1L340.1,169.7z M280.7,248.4L425.5,358l12.4-14.5l-145.1-111L280.7,248.4z M200.6,347.3
	c7.2,0.8,14.4,1.5,21.6,2.3c32-24.1,57.5-43.3,89.4-67.5l-35.9-27.1l-3.9,5.2l-8.7,1.1C242.3,289.9,221.5,318.6,200.6,347.3
	 M237.4,93.3c-8-6.2-16.1-12.5-24.1-18.7c-18.8,29.5-37.7,58.9-56.5,88.4c-12.9,36.1-25.9,72.2-38.8,108.3c4.3,8.5,8.7,16.9,13,25.4
	c20.1-29.9,40.1-59.7,60.2-89.6c-0.1-1.3-0.1-2.5-0.2-3.8c7.1-10.5,14.1-21.1,21.2-31.6c24.8,19.1,49.6,38.2,74.4,57.3
	c1.9-2.4,3.7-4.8,5.6-7.2l156,119.4l-6.7,7.6c64.3,49.4,138.9,106.4,206.5,158.2c5.3-4.9,7.6-7,12.9-12c8.4,6.5,16.9,13,25.3,19.5
	c1.4-1.3,5.9-5.5,7.3-6.8c-2.7-2.1-3.3-2.4-5.9-4.5c-4.4-3.6,0.3-9.1,2.5-11.2c-4.8-3.7-9.6-7.4-14.4-11.1c5.4-5.1,7.3-7,12.8-12.2
	c-82.7-64.6-39.4-30.7-100.3-78.4c-35.4-27.6-70.7-55.2-106.1-82.8l-7.3,9.2L257.3,147.2l7.1-9.9L249.8,126
	c-2.7-2.3-2.7-4.5-1.1-6.8c2.6-3.7,4.8-7,7.3-10.8c13.9-20.9,22.9-45.8,18.2-71.2C262,55.9,249.7,74.6,237.4,93.3 M303,139.1
	c-0.9,1.3-0.5,2.2,0.5,3.1c1.2,1,13.5,10.6,25.9,20.4c-4.7,6.5-9.4,12.9-14.2,19.4c-17.5-13.7-39.4-30.8-45.4-35.5
	c5.8-8.5,10-14.8,15.8-23.3c9.9-14.4,33.9-28.6,52.1-33.9C326.2,106,314.6,122.6,303,139.1 M325,497.6c-5.6,5.9-10.6,12.1-15.5,18.3
	c-5.2-3.2-9.7-6.5-14.4-10c-4.7-3.5-9.6-7.5-14.2-11.5c4.4-6.7,8.8-13.4,13.2-20.1c-5.6-5.1-10.6-9.8-15.6-15.1
	c-6.8,4.5-13.5,9-19.7,13.9c-8.1-9-15.8-18.5-22.5-28.2c6-5.3,11.7-10.8,18.1-16.1c-4.1-5.9-7.9-12.3-11.3-18.7
	c-8,2.5-15.6,5.3-23,8.2c-5.9-10.8-10.9-21.8-14.9-32.8c7-3.7,14.4-7.3,21.8-10.9c-1.6-5.1-3.4-10.4-4.8-15.6
	c2.1,0.1,4.2-0.6,6.1-1.9c25.8-19.4,51.5-38.9,77.3-58.3c7.4-1.4,14.9-2.7,22.3-4c32.2,24.4,64.4,48.7,96.7,73.1
	c4,3.1,9.8,2.5,13.1-1.5c14.7,11.4,29.4,22.8,44.1,34.2c1.8,17.4,3.6,34.8,5.5,52.1c0.4,3.6,3.9,5.8,7.3,4.7
	c12.8-4.3,25.4-10.3,37.2-18c25.9,20.1,51.8,40.2,77.6,60.3c-7.6,6.9-15.8,12.9-24.3,18.5c-5.7-6.3-11-12.5-16.5-18.9
	c-5.7,4-12.2,7.2-18.3,10.6c3.1,7.9,5.9,15.7,8.6,23.5c-10.4,4.8-21,9.3-32.1,12.8c-3.6-7.3-7.4-14.8-10.9-22.2
	c-6.9,2.1-13.7,3.9-20.6,5.4c0.7,8.1,1.4,16.3,2.4,24.6c-11,2.2-22.8,3.5-34.4,4.1c-2-8.2-3.7-16.2-5-24.1c-7.2,0.1-14.3,0-21.6-0.3
	c-1.1,8.2-2.6,16.3-3.7,24.4c-11.4-0.9-23.2-2.4-34.7-5c0.2-8.1,0.8-16.2,1.3-24.2c-7.1-1.9-13.9-3.6-21-5.9
	c-3.2,7.3-6.4,14.7-9.6,22.3c-11-3.8-21.9-8.3-32.6-13.7c2.4-7.6,4.6-15.4,7.5-23.1C337.2,505.2,330.8,501.2,325,497.6 M372.2,439.3
	c15.3-18.3,30.4-36.9,45.3-55.7c2.6-3.3,8.4-2.2,9.3,2.6c5,24.3,10.3,48.3,15.3,72.2c0.4,1.8,0.3,3.5-0.8,4.8
	c-1.1,1.2-3,1.6-4.7,1.5c-21.1-1.2-42.3-6.8-62.6-16.9C371.1,446.2,369.9,442,372.2,439.3 M296.9,347.6c23.9-1.8,48-3.7,72.4-5.5
	c4.5-0.3,7.7,5,5.3,8.7c-13.1,20.4-26.3,40.3-39.4,60.3c-2.1,3.3-6.2,3.2-8.7,0.4c-15.1-16.7-26.8-35.7-34.2-56.7
	C291.1,351.6,293.6,347.9,296.9,347.6 M511.6,169c-15.7,19.4-31.3,38.8-46.6,57.7c-1.4,1.8-3.7,2.3-5.7,1.7c-2.1-0.6-3.6-2.3-4-4.5
	c-5.3-25-10.1-49.7-15.3-74.7c-0.4-1.8,0.1-3.3,1.1-4.7c1-1.4,2.8-2.2,4.2-2.2c22,1.2,44,7.2,64.1,17.7c2,1,2.5,2.1,3,3.9
	C513,165.8,512.6,167.8,511.6,169 M508,260.1c13.6-20.5,27.4-41,40.9-61.9c1-1.5,2.2-2.5,4.1-2.6c1.9-0.1,3.3,0.5,4.6,1.8
	c15.6,17.4,26.8,37.5,33.8,58.4c0.5,1.6,0.4,3.4-0.5,5c-0.9,1.5-2.5,2.4-4.1,2.5c-24.9,1.9-49.4,3.6-73.9,5.5
	c-2,0.2-3.7-0.8-4.9-2.7C507.1,264.3,506.9,261.9,508,260.1 M670.9,419.1c5-9.9,8.9-20.2,12.4-30.5c-7.8-3.6-15.5-7.4-22.8-11
	c2.1-7.1,3.8-14.3,5.3-21.2c8.6,0.7,16.8,1.3,25.4,2.2c2-11.9,3.6-23.8,4.3-35.8c-8.5-1.5-16.5-3-24.9-4.7c0.1-7.6,0.1-15,0-22.2
	c8.1-1.7,16.2-3.3,24.6-4.7c-0.7-12-2.6-24.4-5.2-36.3c-8.4,0.8-17,1.2-25,2.2c-1.8-7.5-3.5-14.4-6.2-22c7.6-3.5,15.3-7.1,23-10.8
	c-3.7-11.7-8.7-23.1-13.9-34c-8.1,2.9-16.4,5.5-24.2,8.6c-3.3-6.8-6.9-13.1-11.1-19.8c6.1-5.9,12.8-11.3,19.5-16.7
	c-7.1-10.4-14.2-20-22.4-29.5c-7.2,4.8-14.4,9.7-21.1,14.6c-4.7-5.5-10.4-10.8-15.8-15.9c4.4-7.4,9.1-14.5,14-21.7
	c-4.3-4.1-9-8.1-13.8-11.8c-4.8-3.7-10.1-7.5-15.4-10.9c-5.3,6.7-10.6,13.4-16.2,19.9c-6.2-4.1-12.5-7.9-19.2-11.3
	c2.4-8.5,5.2-16.7,7.9-25c-11-5.5-22.5-10.6-33.7-14.5c-3.5,8.1-7.2,15.8-10.7,23.8c-6.7-2-14-3.9-21.3-5.7
	c0.4-8.8,0.9-17.7,1.2-26.5c-12.2-2.7-23.8-4.1-35.9-4.9c-1.6,8.7-2.8,17.3-4,25.9c-7.5-0.3-14.7-0.2-22.1,0c-2-8.6-3.6-17.2-5.5-26
	c-11.8,0.7-23.8,2.5-35.5,4.9c1,8.7,1.7,17.3,2.9,26.4c-1.9,0.4-15.5,3.4-18.3,5.2l-43.2,60.2l31.3,25.2c9.9-6.1,20.5-11,31.6-14.7
	c1.5-0.5,3.1-0.5,4.6,0.5c1.5,1,2.5,2.7,2.7,4.5c1.5,14.9,3.2,29.9,4.8,44.8l6.7,5.4c1.9-2.4,3.7-4.8,5.7-7.1c5.3-6.1,14.4-4,25,4.1
	c10.5,8.1,14.4,17.7,10,23.4c-1.9,2.5-4,5-5.9,7.5l105.3,84.8c15.9-2.9,31.7-6,47.7-8.8c2-0.3,3.2,0,4.6,1.2c1.4,1.2,2.1,3,2,4.8
	c-0.8,13.7-3,27.5-7,40.9l77.9,62.7L670.9,419.1z M410.5,215.3c2.1,1.7,4.2,3.4,6.4,5.1c-2.2,2.8-1.5,2-3.9,5.1
	c2.3,1.8,4.7,3.7,7,5.5c2.4-3,1.7-2.2,3.9-5c2.1,1.6,4.2,3.3,6.2,4.9c2.8-3.6,5.7-7.1,8.5-10.7c0.1-6.9-13.1-16.7-19.7-15.7
	C416.2,207.6,413.1,212,410.5,215.3"/>
</svg>
